<svg version="1" xmlns="http://www.w3.org/2000/svg" width="1013.333" height="1013.333" viewBox="0 0 760.000000 760.000000"><path d="M121 .4c0 1.1 3 13.6 7.1 29.1 1.7 6.6 3.2 12.7 3.5 13.5.5 2.1 4.3 16.8 5.5 21 .5 1.9 1.2 4.4 1.4 5.5.3 1.1 2.5 9.8 5.1 19.3 2.5 9.5 4.7 18.1 4.9 19 .1.9 1 4.2 1.9 7.2.8 3 2.5 9.1 3.6 13.5 2.9 10.7 4.6 17.2 5.5 20.2.2 1 1.4 5.3 2.5 9.5 1.1 4.3 2.9 11.3 4 15.5 1.1 4.3 2.2 8.6 2.5 9.6.2 1 .7 2.7 1 3.7.3 1 .8 2.7 1 3.7.2 1 1.4 5.2 2.5 9.3 1.1 4.1 2.2 8.4 2.5 9.5.2 1.1 1.4 5.4 2.6 9.5 1.1 4.1 2.5 9.1 2.9 11 .5 1.9 2.3 8.7 4 15 1.7 6.3 3.3 12.6 3.6 13.9.3 1.4.7 2.9 1 3.3.3.5.8 2.4 1.1 4.1.3 1.8.9 4 1.4 4.9.5 1 .7 1.8.5 1.8-.3 0 .2 1.9 1 4.2.8 2.3 1.7 5.5 2 7.2.3 1.7 1.1 5 1.9 7.3.8 2.3 1.6 5.3 1.9 6.7.3 1.4.7 2.9 1 3.4.3.5.7 1.9 1 3.3.6 3.2 2.1 9.1 4.1 16.4 1.4 4.9 4 14.7 6 22.5.2.8 2 7.6 4 15s3.8 14.3 4.1 15.2c.6 2.5 1 4.3 3.4 12.8 1.1 4.1 2.3 8.2 2.5 9 .2.8.8 3 1.4 4.8.5 1.8 1 3.4 1.1 3.7 0 .3.2 1 .4 1.7.5 1.4 1.6 6.4 1.7 7.3 0 .2.5 1.9 1 3.7.6 1.8 2.4 8.1 3.9 14.1 1.6 5.9 3.1 11.1 3.4 11.5.3.5.7 2 1 3.5.4 2.6 5.8 22.6 11.7 43.9 1.7 6 3.2 11.6 3.4 12.5.4 2.2 4.5 17.2 5.3 19.3.3.8.7 2.4.9 3.4.2 1.1 1.7 6.7 3.3 12.5 4.4 15.6 4.6 16.1 9.5 34.1 2.5 9.1 6.1 21.9 8 28.5 1.9 6.6 3.6 12.9 3.8 14 .2 1.1.6 2.7.9 3.5.3.8 1.1 3.3 1.7 5.5 2.7 9.8 5.4 19.4 6.6 24 .7 2.7 2.9 10.6 5 17.5 2 6.9 3.8 13.4 3.9 14.5.2 1.1.4 2 .5 2 .2 0 .4.7.6 1.5.9 3.8 7.4 25.8 8.4 28.2.6 1.6.9 2.8.6 2.8-.2 0 .3 1.7 1.2 3.8.8 2 1.4 3.7 1.3 3.7-.3 0 1.2 5.8 2.7 10.5.8 2.5 1.6 5.2 1.8 6 .9 3.8 6.7 21 7.1 21 1.7 0 5-5.4 11.6-19 8.2-16.8 9.5-19.6 15.8-34.5 2.4-5.5 4.6-10.5 5-11 .4-.6 1.1-2.1 1.5-3.3.4-1.3 1.6-4.5 2.8-7 1.2-2.6 2.2-4.9 2.2-5.2.1-.3 1.1-2.7 2.3-5.3 1.2-2.7 2.2-5 2.2-5.2 0-.2 3.9-9 8.6-19.7 10.2-22.8 12.3-27.7 12.4-28.3 0-.3 1.3-3.1 2.9-6.2 1.6-3.2 4.1-8.7 5.6-12.2s3.3-7.3 4-8.5c.8-1.2 1.4-2.3 1.4-2.6-.1-.9 1.9-5.5 6.1-14.5 2.4-5 4.3-9.6 4.3-10.3 0-.6.3-1.2.6-1.2s1.2-1.5 2-3.3c4.1-9.8 5.5-12.6 6.2-12.2.6.4 21 27.4 43.5 57.6 9.7 13.1 24 32.1 26.2 34.8 1.5 1.9 5.5 7.1 9 11.5 3.5 4.5 7.3 9.4 8.5 10.9 3.6 4.6 9.1 9.7 10.4 9.7 1.3 0 3.6-3.4 2.8-4.1-.2-.3-.6-3.6-.9-7.4-.3-3.9-.8-9-1.1-11.5-.3-2.5-.7-7-1-10-.4-3-.8-7.3-1.1-9.5-.2-2.2-.6-6.7-.9-10-.7-8.7-2.1-24.9-3-34-.5-4.6-1.6-18.3-2-23.5-.3-4.9-1.5-18.6-2-24-.3-2.5-.7-7.9-1-12-.3-4.1-.7-9.1-.9-11-.3-1.9-.7-7.6-1.1-12.5-.3-5-.8-10.8-1-13-.3-2.2-.7-7.4-1-11.5-.3-4.1-.7-9.5-1-12-.2-2.5-.7-8.1-1-12.5-.3-4.4-.8-10.5-1.1-13.5-.3-3-.6-8.1-.7-11.3-.1-3.1-.4-5.7-.7-5.7-.3 0-.6-2.6-.6-5.8-.1-3.1-.4-8.6-.8-12.2l-.6-6.6 10-7.4c5.5-4.1 10-7.8 10-8.3 0-.4.6-.7 1.4-.7.8 0 1.6-.3 1.8-.8.2-.4 3-2.8 6.3-5.3 7.9-6 15.3-11.6 19-14.4 21.9-16.9 41.7-32.2 44.4-34.3 9.2-7.4 26.2-21.2 27.4-22.4.8-.7 3.3-2.9 5.6-4.7 6.1-5 12.1-10.9 12.1-12 0-.9-8.4-7.1-9.6-7.1-.3 0-2.5-1.4-4.9-3-2.4-1.7-4.6-3-4.8-3-.2 0-8.2-4.5-17.6-10-9.5-5.5-17.6-10-18.1-10-.6 0-1-.5-1-1 0-.6-.4-1-.9-1-.4 0-10.9-5.8-23.2-12.8-12.3-7-23.1-13.1-23.9-13.5-.8-.4-2.4-1.3-3.5-2s-5.2-3-9-5.2c-3.9-2.2-8.8-5-11-6.2-2.2-1.3-5.6-3.1-7.5-4.1-1.9-.9-3.7-1.9-4-2.2-.9-1-17.2-10-18.1-10-.5 0-.9-.5-.9-1 0-.6-.4-1-.9-1s-4-1.8-7.8-3.9c-3.8-2.1-9.3-5.2-12.3-6.9-3-1.6-7.2-3.9-9.2-5.1-2.1-1.1-5.5-3.1-7.5-4.2-2.1-1.2-6.3-3.5-9.3-5.2-3-1.7-7.3-4.1-9.5-5.3-2.2-1.3-5.8-3.3-8-4.5-2.2-1.2-14.7-8.2-27.7-15.5C376.7 139 365.6 133 365 133c-.5 0-1-.5-1-1 0-.6-.5-1-1-1-.6 0-6.1-2.9-12.3-6.4-6.2-3.4-14.2-7.9-17.8-9.9-3.7-1.9-13.8-7.5-22.5-12.5C301.6 97.3 292 92 289 90.3c-3-1.6-7.1-3.9-9-5-1.9-1.1-7.5-4.1-12.5-6.8-4.9-2.6-9.4-5.1-10-5.5-1.2-.9-17.9-9.9-21.2-11.4-1.3-.6-2.3-1.4-2.3-1.9 0-.4-.5-.7-1.1-.7-.5 0-8.1-3.9-16.7-8.6-8.6-4.8-18.2-10-21.2-11.7-3-1.6-7.3-4-9.5-5.2-2.2-1.3-7.6-4.2-12-6.5-9.6-5.2-17.5-9.4-27.5-14.8-18.4-9.9-25-13-25-11.8z"/></svg>