<svg xmlns="http://www.w3.org/2000/svg" width="210mm" height="297mm" viewBox="0 0 210 297"><defs><linearGradient id="a" x2="1" gradientTransform="rotate(44.533 62.485 1706.616) scale(390.53)" gradientUnits="userSpaceOnUse"><stop stop-color="#212121" stop-opacity=".616" offset="0"/><stop stop-color="#4d4d4d" stop-opacity="0" offset="1"/></linearGradient></defs><path d="M70.403 105.314V67.91a4.534 4.534 0 0 1 4.534-4.534H99.89l18.695 18.695v27.034h-48.18v-3.792z" fill="#eb0005"/><path d="M118.583 109.106v12.647c0 2.032-2.03 3.68-4.534 3.68H74.937c-2.505 0-4.534-1.648-4.534-3.68v-12.647h48.18z" fill="#c20004"/><path d="M103.844 105.121H85.139c-.032-.001-.063-.001-.094-.004a1.018 1.018 0 0 1-.916-.917c-.003-.03-.003-.062-.005-.093V80.47c.002-.03.002-.062.005-.093a1.018 1.018 0 0 1 .916-.917c.031-.003.062-.003.094-.004h18.705l.093.004.093.013a1.006 1.006 0 0 1 .497.248 1.017 1.017 0 0 1 .327.656c.003.03.003.062.004.093v23.637c-.001.031-.001.062-.004.093a1.018 1.018 0 0 1-.917.917c-.03.003-.062.003-.093.004zm-1.014-23.637H86.152v21.609h16.678zm-1.86 17.498v1.416H87.495v-1.416zm-13.474-2.963h13.473v1.416H87.496zm0-2.963h13.473v1.416H87.496zm0-2.962h13.473v1.416H87.496zm6.996-5.92h6.477v4.373h-6.477zm-6.996 2.962h5.361v1.41h-5.36zm0-2.963h5.361v1.416h-5.36z" fill="#fff"/><path d="M1117.8 211.44h.14l311.94 311.94v260.83c-2.19 1.131-4.06 1.055-5.56-.442-14.77-14.769-292.47-273.35-292.47-294.24 0-91.863-13.88-275.89-14.05-278.09z" fill="url(#a)" transform="translate(32.882 50.704) scale(.05994)"/><path d="M99.88 63.377h.009l18.697 18.697H104.6a4.72 4.72 0 0 1-4.72-4.72V63.377z" fill="#c20004"/><path d="M85.233 121.591H82.86v-9.283h2.644c1.036 0 1.763.05 2.182.152.418.101.773.275 1.065.52.342.283.603.637.783 1.062.18.425.27.897.27 1.417 0 .554-.09 1.041-.267 1.462-.177.42-.44.766-.786 1.037-.262.203-.57.348-.926.437-.355.09-.924.134-1.706.134h-.887v3.062zm0-5.104h.482c.608 0 1.033-.084 1.274-.251.241-.167.362-.451.362-.853 0-.389-.119-.666-.356-.83-.236-.165-.655-.248-1.255-.248h-.507zm5.859 5.104v-9.283h1.934c1.441 0 2.46.067 3.059.203a4.403 4.403 0 0 1 1.576.678c.588.41 1.034.935 1.338 1.576.304.64.456 1.37.456 2.19 0 .82-.152 1.551-.456 2.191a3.967 3.967 0 0 1-1.338 1.576 4.37 4.37 0 0 1-1.535.67c-.575.132-1.466.2-2.675.2h-2.36zm2.504-2.08h.425c.993 0 1.719-.204 2.175-.612.457-.408.685-1.055.685-1.943 0-.888-.228-1.539-.685-1.953-.456-.415-1.182-.621-2.175-.621h-.425zm7.444 2.08v-9.283h5.687v2.035h-3.22v1.61h3.036v1.992h-3.037v3.646h-2.467z" fill="#fff"/></svg>